<?xml version="1.0" encoding="UTF-8" standalone="no"?>
<!-- Created with Inkscape (http://www.inkscape.org/) -->
<svg
   xmlns:dc="http://purl.org/dc/elements/1.1/"
   xmlns:cc="http://creativecommons.org/ns#"
   xmlns:rdf="http://www.w3.org/1999/02/22-rdf-syntax-ns#"
   xmlns:svg="http://www.w3.org/2000/svg"
   xmlns="http://www.w3.org/2000/svg"
   xmlns:sodipodi="http://sodipodi.sourceforge.net/DTD/sodipodi-0.dtd"
   xmlns:inkscape="http://www.inkscape.org/namespaces/inkscape"
   width="1112.9528"
   height="422.00787"
   id="svg2"
   sodipodi:version="0.32"
   inkscape:version="0.46dev+devel"
   version="1.0"
   sodipodi:docbase="C:\Dokumente und Einstellungen\Andreas\Desktop"
   sodipodi:docname="Amiga-Logo.svg"
   inkscape:output_extension="org.inkscape.output.svg.inkscape">
  <defs
     id="defs4" />
  <sodipodi:namedview
     id="base"
     pagecolor="#ffffff"
     bordercolor="#666666"
     borderopacity="1.0"
     inkscape:pageopacity="0.0"
     inkscape:pageshadow="2"
     inkscape:zoom="0.60469772"
     inkscape:cx="556.47638"
     inkscape:cy="211.00394"
     inkscape:document-units="px"
     inkscape:current-layer="layer1"
     inkscape:window-width="1152"
     inkscape:window-height="792"
     inkscape:window-x="-4"
     inkscape:window-y="-4"
     showgrid="false"
     units="cm" />
  <metadata
     id="metadata7">
    <rdf:RDF>
      <cc:Work
         rdf:about="">
        <dc:format>image/svg+xml</dc:format>
        <dc:type
           rdf:resource="http://purl.org/dc/dcmitype/StillImage" />
      </cc:Work>
    </rdf:RDF>
  </metadata>
  <g
     inkscape:label="Ebene 1"
     inkscape:groupmode="layer"
     id="layer1"
     transform="translate(-52.165157,-399.35723)">
    <g
       id="g2525"
       transform="translate(35.465408,35.468944)">
      <path
         sodipodi:nodetypes="ccccc"
         style="fill:#fd0000"
         d="M 579.48348,474.44803 L 563.22414,416.68669 L 619.87848,399.35723 L 638.72533,457.11154 L 579.48348,474.44803 z"
         id="path1888" />
      <path
         sodipodi:nodetypes="csssssscccssssssssssccccccssc"
         id="path1960"
         d="M 769.8436,749.85603 C 747.94872,747.57251 730.80338,740.01819 713.87124,725.19434 C 690.42321,704.66592 678.41047,684.08828 672.47143,654.27709 C 669.94732,641.60724 669.93708,612.61131 672.45259,600.937 C 677.81619,576.04493 690.74862,551.76326 708.62837,533.01408 C 718.91591,522.22629 727.40715,515.80764 738.62837,510.33663 C 752.12294,503.75723 760.88267,501.75272 778.70522,501.16575 C 808.04822,500.19937 827.72389,504.97941 852.29619,519.04407 L 863.12837,525.24418 L 863.12837,573.90309 C 858.85568,573.18867 851.15714,575.81305 848.12837,572.41803 C 848.12837,569.48492 840.87883,549.27063 837.53798,542.88826 C 829.97988,528.44925 817.8558,517.51286 804.12837,512.75147 C 798.74671,510.88483 795.56375,510.50405 785.62837,510.5383 C 765.708,510.60696 752.54861,515.41119 742.35286,526.33734 C 731.46705,538.00299 726.30483,553.0757 724.16341,579.44711 C 722.78724,596.39448 722.83803,665.1283 724.23631,678.11387 C 728.15453,714.50153 740.86858,733.13497 766.12837,739.50999 C 775.448,741.86206 794.34508,741.02256 802.54718,737.89209 C 809.72559,735.15233 816.44533,729.18452 819.79498,722.57431 C 823.90498,714.46361 825.09196,706.21972 825.11101,685.65309 L 825.12837,666.90309 L 789.12837,666.90309 L 789.12837,657.90309 L 877.38601,657.90309 L 876.68629,668.15309 C 875.33972,687.87844 871.60367,700.33339 863.16105,713.24253 C 851.43955,731.16521 830.03243,744.66133 806.62837,748.88357 C 797.97741,750.44426 780.03233,750.91866 769.8436,749.85603 z"
         style="fill:#000000" />
      <path
         sodipodi:nodetypes="ccssccccccccccc"
         d="M 52.165157,745.90309 L 140.89671,501.40309 L 153.22718,501.6019 C 154.14276,501.61666 235.12837,734.36239 235.12837,735.56458 L 261.12837,735.90309 L 261.12837,745.90309 L 191.36009,745.90309 L 165.6483,673.88005 L 88.744277,674.40309 L 63.380927,745.90309 L 52.165157,745.90309 z M 161.15207,663.15309 L 128.69601,566.02876 L 93.170777,663.90309 L 161.15207,663.15309 z"
         style="fill:#000000"
         id="path1958" />
      <path
         sodipodi:nodetypes="cccccccccccccccccc"
         id="path1954"
         d="M 275.12837,515.90309 L 240.12837,515.90309 L 240.12837,506.90309 L 332.62837,506.90747 L 382.0071,667.0805 L 433.59125,506.90309 L 489.12837,506.90309 L 489.12837,735.90309 L 522.12837,735.90309 L 522.12837,745.90309 L 443.12837,745.90309 L 442.61016,523.08796 L 371.04267,745.90309 L 358.32317,745.90309 L 287.20785,522.40309 L 287.12837,745.90309 L 275.12837,745.90309 L 275.12837,515.90309 z"
         style="fill:#000000" />
      <path
         sodipodi:nodetypes="ccccccccccc"
         id="path1952"
         d="M 537.12837,735.90309 L 570.12837,735.90309 L 570.12837,506.90309 L 651.12837,506.90309 L 651.12837,515.90309 L 616.12837,515.90309 L 616.12837,735.90309 L 651.12837,735.90309 L 651.12837,745.90309 L 537.12837,745.90309 L 537.12837,735.90309 z"
         style="fill:#000000" />
      <path
         sodipodi:nodetypes="ccssccccccccccc"
         d="M 885.22389,745.90309 L 973.95544,501.40309 L 986.28591,501.6019 C 987.20149,501.61666 1068.1871,734.36239 1068.1871,735.56458 L 1094.1871,735.90309 L 1094.1871,745.90309 L 1024.4188,745.90309 L 998.70703,673.88005 L 921.80301,674.40309 L 896.43966,745.90309 L 885.22389,745.90309 z M 994.2108,663.15309 L 961.75474,566.02876 L 926.22951,663.90309 L 994.2108,663.15309 z"
         style="fill:#000000"
         id="path1970" />
    </g>
  </g>
</svg>
